<svg width="100%" viewBox="0 0 900 160" xmlns="http://www.w3.org/2000/svg">
  <rect width="900" height="160" rx="12" fill="#1a1a2e"/>
  <circle cx="820" cy="-20" r="140" fill="#ED93B1" fill-opacity="0.12"/>
  <circle cx="80" cy="190" r="110" fill="#AFA9EC" fill-opacity="0.10"/>
  <text x="44" y="62" font-family="Georgia,serif" font-size="32" fill="#ffffff" font-weight="400">Hajar Natiq</text>
  <text x="44" y="90" font-family="Arial,sans-serif" font-size="13" fill="#9b9bbf">CS · AI &amp; Software Engineering @ University of Roehampton</text>
  <text x="44" y="110" font-family="Arial,sans-serif" font-size="13" fill="#9b9bbf">VP, AI &amp; Computing Society · MOI competitor · open to summer 2026 internships</text>
  <rect x="44" y="128" width="70" height="22" rx="11" fill="none" stroke="rgba(255,255,255,0.2)" stroke-width="0.5"/>
  <text x="79" y="143" font-family="Arial,sans-serif" font-size="11" fill="rgba(255,255,255,0.7)" text-anchor="middle">Python</text>
  <rect x="122" y="128" width="60" height="22" rx="11" fill="none" stroke="rgba(255,255,255,0.2)" stroke-width="0.5"/>
  <text x="152" y="143" font-family="Arial,sans-serif" font-size="11" fill="rgba(255,255,255,0.7)" text-anchor="middle">React</text>
  <rect x="190" y="128" width="70" height="22" rx="11" fill="none" stroke="rgba(255,255,255,0.2)" stroke-width="0.5"/>
  <text x="225" y="143" font-family="Arial,sans-serif" font-size="11" fill="rgba(255,255,255,0.7)" text-anchor="middle">Node.js</text>
  <rect x="268" y="128" width="44" height="22" rx="11" fill="none" stroke="rgba(255,255,255,0.2)" stroke-width="0.5"/>
  <text x="290" y="143" font-family="Arial,sans-serif" font-size="11" fill="rgba(255,255,255,0.7)" text-anchor="middle">SQL</text>
  <rect x="320" y="128" width="38" height="22" rx="11" fill="none" stroke="rgba(255,255,255,0.2)" stroke-width="0.5"/>
  <text x="339" y="143" font-family="Arial,sans-serif" font-size="11" fill="rgba(255,255,255,0.7)" text-anchor="middle">C++</text>
  <rect x="366" y="128" width="78" height="22" rx="11" fill="none" stroke="rgba(255,255,255,0.2)" stroke-width="0.5"/>
  <text x="405" y="143" font-family="Arial,sans-serif" font-size="11" fill="rgba(255,255,255,0.7)" text-anchor="middle">scikit-learn</text>
  <rect x="452" y="128" width="58" height="22" rx="11" fill="none" stroke="rgba(255,255,255,0.2)" stroke-width="0.5"/>
  <text x="481" y="143" font-family="Arial,sans-serif" font-size="11" fill="rgba(255,255,255,0.7)" text-anchor="middle">Docker</text>
</svg>
