<svg width="680" height="160" viewBox="0 0 680 160" xmlns="http://www.w3.org/2000/svg">
  <rect width="680" height="160" rx="12" fill="#1a1a2e"/>
  <circle cx="620" cy="-20" r="120" fill="#ED93B1" fill-opacity="0.12"/>
  <circle cx="60" cy="180" r="90" fill="#AFA9EC" fill-opacity="0.10"/>
  <text x="36" y="62" font-family="Georgia,serif" font-size="32" fill="#ffffff" font-weight="400">Hajar Natiq</text>
  <text x="36" y="90" font-family="Arial,sans-serif" font-size="13" fill="#9b9bbf">CS · AI &amp; Software Engineering @ University of Roehampton</text>
  <text x="36" y="110" font-family="Arial,sans-serif" font-size="13" fill="#9b9bbf">VP, AI &amp; Computing Society · MOI competitor · open to summer 2026 internships</text>
  <rect x="36" y="128" width="70" height="22" rx="11" fill="none" stroke="rgba(255,255,255,0.2)" stroke-width="0.5"/>
  <text x="71" y="143" font-family="Arial,sans-serif" font-size="11" fill="rgba(255,255,255,0.7)" text-anchor="middle">Python</text>
  <rect x="114" y="128" width="60" height="22" rx="11" fill="none" stroke="rgba(255,255,255,0.2)" stroke-width="0.5"/>
  <text x="144" y="143" font-family="Arial,sans-serif" font-size="11" fill="rgba(255,255,255,0.7)" text-anchor="middle">React</text>
  <rect x="182" y="128" width="70" height="22" rx="11" fill="none" stroke="rgba(255,255,255,0.2)" stroke-width="0.5"/>
  <text x="217" y="143" font-family="Arial,sans-serif" font-size="11" fill="rgba(255,255,255,0.7)" text-anchor="middle">Node.js</text>
  <rect x="260" y="128" width="44" height="22" rx="11" fill="none" stroke="rgba(255,255,255,0.2)" stroke-width="0.5"/>
  <text x="282" y="143" font-family="Arial,sans-serif" font-size="11" fill="rgba(255,255,255,0.7)" text-anchor="middle">SQL</text>
  <rect x="312" y="128" width="38" height="22" rx="11" fill="none" stroke="rgba(255,255,255,0.2)" stroke-width="0.5"/>
  <text x="331" y="143" font-family="Arial,sans-serif" font-size="11" fill="rgba(255,255,255,0.7)" text-anchor="middle">C++</text>
  <rect x="358" y="128" width="78" height="22" rx="11" fill="none" stroke="rgba(255,255,255,0.2)" stroke-width="0.5"/>
  <text x="397" y="143" font-family="Arial,sans-serif" font-size="11" fill="rgba(255,255,255,0.7)" text-anchor="middle">scikit-learn</text>
  <rect x="444" y="128" width="58" height="22" rx="11" fill="none" stroke="rgba(255,255,255,0.2)" stroke-width="0.5"/>
  <text x="473" y="143" font-family="Arial,sans-serif" font-size="11" fill="rgba(255,255,255,0.7)" text-anchor="middle">Docker</text>
</svg>
